<?xml version="1.0" standalone="no"?>
<!DOCTYPE svg PUBLIC "-//W3C//DTD SVG 20010904//EN"
 "http://www.w3.org/TR/2001/REC-SVG-20010904/DTD/svg10.dtd">
<svg version="1.0" xmlns="http://www.w3.org/2000/svg"
 width="200.000000pt" height="200.000000pt" viewBox="0 0 200.000000 200.000000"
 preserveAspectRatio="xMidYMid meet">
<metadata>
Created by potrace 1.14, written by Peter Selinger 2001-2017
</metadata>
<g transform="translate(0.000000,200.000000) scale(0.100000,-0.100000)"
fill="#000000" stroke="none">
<path d="M0 1000 l0 -1000 1000 0 1000 0 0 1000 0 1000 -1000 0 -1000 0 0
-1000z m655 315 c0 -15 -7 -27 -17 -31 -24 -7 -69 -70 -62 -87 11 -30 104 -41
174 -20 64 18 77 17 84 -13 9 -34 0 -43 -20 -18 -15 18 -15 18 -9 -3 5 -17 2
-23 -9 -23 -10 0 -13 6 -10 15 4 8 1 15 -5 15 -6 0 -11 -4 -11 -10 0 -5 -7
-10 -15 -10 -9 0 -18 -7 -21 -15 -4 -8 -10 -15 -16 -15 -5 0 -7 4 -3 9 8 14
-12 23 -36 16 -12 -4 -18 -12 -15 -21 7 -18 -9 -18 -28 1 -20 20 -29 19 -22
-2 5 -15 -1 -18 -29 -20 -18 -2 -37 2 -41 9 -5 7 1 9 19 5 22 -6 24 -4 20 13
-3 11 -10 20 -15 20 -5 0 -6 -4 -3 -10 3 -5 0 -10 -8 -10 -8 0 -13 9 -11 23 1
12 3 26 3 30 1 5 13 -1 28 -12 36 -29 45 -15 9 16 -16 13 -32 20 -35 16 -8
-13 -41 -26 -72 -28 -14 -2 -35 -6 -47 -9 -17 -6 -22 -3 -22 9 0 12 6 15 23
10 16 -4 18 -4 8 3 -11 8 -10 12 7 21 11 6 46 33 78 61 33 27 71 52 86 56 29
6 36 19 16 27 -7 3 -4 6 7 6 15 1 20 -5 20 -24z m135 2 c0 -7 -6 -25 -12 -40
-15 -31 -42 -35 -76 -11 l-23 16 33 23 c36 26 78 32 78 12z m160 -26 c56 -21
118 -29 91 -12 -11 7 -10 11 5 19 19 11 72 -4 116 -31 13 -8 46 -18 73 -21 66
-9 105 -25 105 -43 0 -11 -4 -13 -12 -6 -11 9 -95 33 -112 33 -3 0 -6 -7 -6
-15 0 -26 -28 -28 -80 -6 -61 26 -109 27 -155 1 -20 -11 -40 -18 -45 -15 -4 3
-10 -1 -13 -7 -3 -10 -7 -10 -20 0 -13 11 -16 10 -20 -3 -4 -12 -5 -11 -3 2 1
13 14 20 50 25 77 11 85 32 9 23 -66 -7 -69 -6 -53 25 7 13 6 21 -5 30 -8 7
-15 17 -15 22 0 11 6 10 90 -21z m-124 -76 c-11 -8 -29 -15 -40 -15 -20 0 -20
0 0 15 10 8 28 14 39 14 20 0 20 0 1 -14z m45 -55 c5 0 9 -4 9 -10 0 -14 -28
-1 -34 17 -3 8 -3 20 1 26 5 8 9 4 11 -10 2 -13 8 -23 13 -23z m291 -14 c38
-43 36 -64 -3 -32 -17 14 -42 29 -55 32 -34 9 -103 -3 -121 -21 -8 -8 -22 -15
-31 -14 -15 0 -15 1 1 8 10 4 17 9 15 11 -1 3 4 14 12 26 17 24 68 45 54 23
-7 -12 -5 -12 9 -1 9 8 21 11 27 7 5 -3 10 -2 10 4 0 18 53 -10 82 -43z m78
50 c0 -2 -7 -9 -15 -16 -13 -11 -14 -10 -9 4 5 14 24 23 24 12z m279 -53 c2
-2 -8 -3 -22 -3 -20 0 -25 4 -21 15 5 13 9 13 23 3 9 -7 18 -14 20 -15z
m-1133 -9 c-30 -21 -44 -16 -17 7 13 11 27 17 30 13 3 -3 -3 -12 -13 -20z
m1154 -8 c0 -3 -4 -8 -10 -11 -5 -3 -10 -1 -10 4 0 6 5 11 10 11 6 0 10 -2 10
-4z m-1042 -26 c-7 -10 -14 -18 -15 -16 -6 6 9 36 18 36 5 0 4 -9 -3 -20z
m272 -1 c0 -4 -7 -6 -15 -3 -8 4 -15 10 -15 15 0 4 7 6 15 3 8 -4 15 -10 15
-15z m287 15 c-3 -3 -12 -4 -19 -1 -8 3 -5 6 6 6 11 1 17 -2 13 -5z m-689 -29
c14 -31 15 -35 4 -35 -4 0 -13 14 -19 30 -14 36 -1 40 15 5z m92 18 c0 -19
-13 -53 -19 -53 -4 0 -6 14 -3 30 2 17 8 30 13 30 5 0 9 -3 9 -7z m1110 -3 c0
-5 -7 -10 -15 -10 -8 0 -15 5 -15 10 0 6 7 10 15 10 8 0 15 -4 15 -10z m-1156
-39 c-2 -2 -10 4 -18 12 -12 11 -13 16 -3 20 11 4 29 -23 21 -32z m-87 22 c-4
-3 -2 -12 4 -20 9 -9 8 -13 0 -13 -6 0 -11 2 -11 4 0 2 -3 11 -6 20 -4 10 -1
16 7 16 7 0 9 -3 6 -7z m-59 -55 c14 -16 13 -18 -6 -18 -17 0 -22 6 -22 25 0
14 -5 25 -11 25 -5 0 -7 5 -3 11 4 8 10 5 17 -7 5 -11 17 -27 25 -36z m35 9
c-3 -4 1 -14 7 -22 9 -11 10 -15 1 -15 -7 0 -19 16 -27 35 -18 45 -18 49 4 28
11 -10 17 -22 15 -26z m797 27 c0 -17 -22 -14 -28 4 -2 7 3 12 12 12 9 0 16
-7 16 -16z m500 6 c0 -5 -2 -10 -4 -10 -3 0 -8 5 -11 10 -3 6 -1 10 4 10 6 0
11 -4 11 -10z m-1410 -10 c0 -5 -2 -10 -4 -10 -3 0 -8 5 -11 10 -3 6 -1 10 4
10 6 0 11 -4 11 -10z m-20 -14 c0 -3 -4 -8 -10 -11 -5 -3 -10 -1 -10 4 0 6 5
11 10 11 6 0 10 -2 10 -4z m240 -6 c0 -5 -2 -10 -4 -10 -3 0 -8 5 -11 10 -3 6
-1 10 4 10 6 0 11 -4 11 -10z m-50 -15 c0 -9 -6 -12 -15 -9 -8 4 -15 10 -15
15 0 5 7 9 15 9 8 0 15 -7 15 -15z m827 -37 c-3 -8 -6 -5 -6 6 -1 11 2 17 5
13 3 -3 4 -12 1 -19z m-902 2 c3 -5 1 -10 -4 -10 -6 0 -11 5 -11 10 0 6 2 10
4 10 3 0 8 -4 11 -10z m372 -26 c-3 -3 -12 -4 -19 -1 -8 3 -5 6 6 6 11 1 17
-2 13 -5z m517 -9 c-4 -8 -11 -15 -16 -15 -6 0 -5 6 2 15 7 8 14 15 16 15 2 0
1 -7 -2 -15z m-704 -5 c0 -5 -2 -10 -4 -10 -3 0 -8 5 -11 10 -3 6 -1 10 4 10
6 0 11 -4 11 -10z m90 -5 c10 -12 10 -15 -3 -15 -8 0 -20 7 -27 15 -10 12 -10
15 3 15 8 0 20 -7 27 -15z m75 -15 c8 -13 -5 -13 -25 0 -13 8 -13 10 2 10 9 0
20 -4 23 -10z m60 -1 c11 -17 -1 -21 -15 -4 -8 9 -8 15 -2 15 6 0 14 -5 17
-11z m50 1 c3 -5 1 -10 -4 -10 -6 0 -11 5 -11 10 0 6 2 10 4 10 3 0 8 -4 11
-10z m60 -10 c3 -5 1 -10 -4 -10 -6 0 -11 5 -11 10 0 6 2 10 4 10 3 0 8 -4 11
-10z m-745 -61 c3 -3 15 -5 27 -4 14 1 29 -7 38 -21 13 -20 104 -80 206 -136
42 -22 49 -32 19 -24 -21 6 -22 5 -7 -4 9 -6 25 -9 35 -6 9 3 24 1 32 -5 12
-8 10 -9 -7 -4 -13 3 -23 3 -23 -2 0 -10 -49 -9 -72 1 -10 5 -19 20 -19 35 -2
23 -2 24 -6 3 -5 -27 -23 -19 -23 11 0 16 -3 18 -9 9 -6 -10 -10 -8 -14 8 -5
19 -11 22 -41 18 -19 -2 -33 -2 -31 1 3 2 -20 17 -50 32 -30 15 -63 35 -72 45
-16 15 -17 15 -24 -2 -5 -12 -8 1 -8 35 l-1 54 23 -19 c12 -10 24 -22 27 -25z
m615 31 c3 -5 2 -10 -4 -10 -5 0 -13 5 -16 10 -3 6 -2 10 4 10 5 0 13 -4 16
-10z m530 -140 c3 -5 1 -10 -4 -10 -6 0 -11 5 -11 10 0 6 2 10 4 10 3 0 8 -4
11 -10z m262 -62 c-3 -8 -6 -5 -6 6 -1 11 2 17 5 13 3 -3 4 -12 1 -19z"/>
<path d="M641 1134 c0 -11 3 -14 6 -6 3 7 2 16 -1 19 -3 4 -6 -2 -5 -13z"/>
</g>
</svg>
