<?xml version="1.0" encoding="iso-8859-1"?>
<!-- Uploaded to: SVG Repo, www.svgrepo.com, Generator: SVG Repo Mixer Tools -->
<svg height="800px" width="800px" version="1.1" id="Layer_1" xmlns="http://www.w3.org/2000/svg" xmlns:xlink="http://www.w3.org/1999/xlink" 
	 viewBox="0 0 341.926 341.926" xml:space="preserve">
<g>
	<path style="fill:#C3C6C8;" d="M291.027,312.25c0-16.365-13.266-29.632-29.631-29.632H239.75
		c-16.365,0-29.632-13.267-29.632-29.631v-5.291c0-21.625-17.53-39.156-39.155-39.156s-39.155,17.531-39.155,39.156v5.291
		c0,16.364-13.267,29.631-29.632,29.631H80.529c-16.365,0-29.631,13.267-29.631,29.632v8.679h240.129V312.25z"/>
	<g>
		<circle style="fill:#E8E8E8;" cx="170.963" cy="133.154" r="125.654"/>
		<circle style="fill:#61B4E4;" cx="170.963" cy="133.154" r="78.998"/>
		<circle style="fill:#333E48;" cx="170.963" cy="133.154" r="55.871"/>
		<circle style="fill:#1E252B;" cx="170.963" cy="133.154" r="27.348"/>
		<circle style="fill:#7D868C;" cx="193.892" cy="116.331" r="16.226"/>
		<path style="fill:#C3C6C8;" d="M296.119,122.001c-5.94,0.263-10.68,5.147-10.68,11.153c0,6.005,4.739,10.891,10.68,11.152
			c0.323-3.676,0.498-7.393,0.498-11.152S296.442,125.677,296.119,122.001z"/>
		<path style="fill:#C3C6C8;" d="M45.808,122.001c5.94,0.263,10.68,5.147,10.68,11.153c0,6.005-4.739,10.891-10.68,11.152
			c-0.324-3.676-0.499-7.393-0.499-11.152S45.483,125.677,45.808,122.001z"/>
	</g>
	<path style="fill:#333E48;" d="M50.898,316.695v9.553c0,4.516,3.661,8.178,8.178,8.178H282.85c4.517,0,8.178-3.662,8.178-8.178
		v-9.553H50.898z"/>
	<path style="fill:#071C2C;" d="M261.396,275.118H239.75c-10.596,0-19.472-7.485-21.628-17.445
		c50.212-19.081,85.995-67.695,85.995-124.519C304.117,59.732,244.385,0,170.963,0S37.809,59.732,37.809,133.154
		c0,56.823,35.783,105.438,85.995,124.519c-2.156,9.96-11.032,17.445-21.628,17.445H80.529c-20.474,0-37.131,16.657-37.131,37.132
		v13.998c0,8.645,7.033,15.678,15.678,15.678H282.85c8.645,0,15.678-7.033,15.678-15.678V312.25
		C298.527,291.775,281.87,275.118,261.396,275.118z M53.971,149.683c5.973-3.12,10.017-9.346,10.017-16.528
		s-4.042-13.415-10.017-16.535C62.038,59.27,111.424,15,170.963,15c59.546,0,108.936,44.279,116.994,101.639
		c-5.974,3.116-10.018,9.335-10.018,16.516c0,7.182,4.043,13.407,10.017,16.527c-8.064,57.354-57.452,101.626-116.993,101.626
		S62.034,207.035,53.971,149.683z M80.529,290.118h21.646c17.291,0,31.858-11.881,35.971-27.906
		c10.502,2.671,21.495,4.096,32.816,4.096s22.314-1.425,32.816-4.096c4.112,16.025,18.68,27.906,35.971,27.906h21.646
		c11.167,0,20.429,8.313,21.921,19.077H58.608C60.101,298.432,69.362,290.118,80.529,290.118z M283.527,326.248
		c0,0.374-0.304,0.678-0.678,0.678H59.076c-0.374,0-0.678-0.304-0.678-0.678v-2.053h225.129V326.248z M257.461,133.154
		c0-47.695-38.803-86.499-86.498-86.499s-86.498,38.804-86.498,86.499s38.803,86.498,86.498,86.498S257.461,180.85,257.461,133.154z
		 M99.465,133.154c0-39.425,32.074-71.499,71.498-71.499s71.498,32.074,71.498,71.499c0,39.424-32.074,71.498-71.498,71.498
		S99.465,172.578,99.465,133.154z M234.334,133.154c0-34.943-28.428-63.371-63.371-63.371s-63.371,28.428-63.371,63.371
		c0,34.942,28.428,63.37,63.371,63.37S234.334,168.097,234.334,133.154z M202.618,116.331c0,4.812-3.914,8.727-8.726,8.727
		s-8.727-3.915-8.727-8.727s3.915-8.726,8.727-8.726S202.618,111.52,202.618,116.331z M189.687,139.677
		c-2.706,7.744-10.066,13.324-18.724,13.324c-10.944,0-19.848-8.903-19.848-19.847c0-10.741,8.582-19.495,19.246-19.817
		c-0.124,0.981-0.195,1.979-0.195,2.994C170.166,127.979,178.604,137.686,189.687,139.677z M122.592,133.154
		c0-26.672,21.699-48.371,48.371-48.371c9.92,0,19.15,3.006,26.834,8.149c-1.271-0.212-2.574-0.327-3.904-0.327
		c-6.236,0-11.914,2.422-16.153,6.369c-2.221-0.438-4.485-0.668-6.776-0.668c-19.215,0-34.848,15.633-34.848,34.848
		s15.633,34.847,34.848,34.847c17.93,0,32.736-13.612,34.637-31.046c6.269-3.572,10.758-9.916,11.788-17.354
		c1.259,4.304,1.946,8.849,1.946,13.554c0,26.671-21.699,48.37-48.371,48.37S122.592,159.825,122.592,133.154z"/>
</g>
</svg>